<?xml version="1.0" encoding="utf-8"?>
<!-- Generator: Adobe Illustrator 24.0.3, SVG Export Plug-In . SVG Version: 6.00 Build 0)  -->
<svg version="1.1" id="Capa_1" xmlns="http://www.w3.org/2000/svg" xmlns:xlink="http://www.w3.org/1999/xlink" x="0px" y="0px"
	 viewBox="0 0 296.9 210.7" style="enable-background:new 0 0 296.9 210.7;" xml:space="preserve">
<style type="text/css">
	.st0{fill:url(#SVGID_1_);}
	.st1{fill:#8E8B8B;}
</style>
<g>
	<g>
		
			<linearGradient id="SVGID_1_" gradientUnits="userSpaceOnUse" x1="53.0482" y1="137.2799" x2="241.9336" y2="137.2799" gradientTransform="matrix(1 0 0 -1 0 204.8161)">
			<stop  offset="0" style="stop-color:#FBBB40"/>
			<stop  offset="0.9951" style="stop-color:#EC6646"/>
		</linearGradient>
		<path class="st0" d="M231.7,45.6c1,0.7,2.3,1.1,3.7,1.1c3.7,0,6.6-3,6.6-6.6s-3-6.6-6.6-6.6c-3.7,0-6.6,3-6.6,6.6
			c0,0.7,0.1,1.4,0.4,2.1c-0.6,0.6-1.3,1-1.9,1.6c-5.9,5-13.9,12.2-16.8,14.8l-24.1-14.3c0.1-0.6,0.3-1.1,0.3-1.7
			c0-4.2-3.3-7.5-7.5-7.5c-1.6,0-3,0.4-4.2,1.3L154,19.4c0.1-0.4,0.1-0.9,0.1-1.3c0-3.3-2.7-6-6-6c-3.3,0-6,2.7-6,6
			c0,1.3,0.4,2.4,1,3.4l-10.6,23.1c-0.4,0-0.9-0.1-1.3-0.1c-1.9,0-3.4,0.6-4.9,1.4l-0.6-0.4l-28.1-12c0.1-0.6,0.1-1.1,0.1-1.9
			c0-4.7-3.7-8.5-8.5-8.5c-4.7,0-8.5,3.7-8.5,8.5s3.7,8.5,8.5,8.5c2.4,0,4.7-1.1,6.3-2.7l27.7,11.9c-0.7,1.3-1.1,2.9-1.1,4.4
			c0,1.7,0.4,3.3,1.3,4.7L108,73.8c-2.1-1.6-4.7-2.4-7.6-2.4c-5,0-9.5,2.9-11.6,7L67,68.5c0-0.3,0-0.4,0-0.7c0-3.7-3-6.7-6.7-6.7
			c-3.7,0-6.7,3-6.7,6.7s3,6.7,6.7,6.7c2,0,3.7-0.9,4.9-2.1l22.2,10.2c-0.1,0.7-0.1,1.3-0.1,2c0,3.7,1.6,7,3.9,9.3l-11.2,15.9
			c-0.4-0.1-0.7-0.1-1.1-0.1c-3,0-5.4,2.4-5.4,5.4c0,3,2.4,5.4,5.4,5.4s5.4-2.4,5.4-5.4c0-1-0.3-2-0.9-2.9l11.2-16
			c1.7,0.9,3.7,1.3,5.7,1.3c3.9,0,7.2-1.6,9.6-4.2l0.3,0.1l13,10c-0.3,0.9-0.4,1.7-0.4,2.6c0,4.7,3.7,8.5,8.5,8.5
			c4.4,0,8-3.3,8.5-7.6l29.7-8.2c2,3.6,5.7,5.9,10,5.9c2.4,0,4.7-0.7,6.6-2l12.9,12.6c-0.1,0.4-0.1,1-0.1,1.6c0,3.4,2.7,6.2,6.2,6.2
			c3.4,0,6.2-2.7,6.2-6.2s-2.7-6.2-6.2-6.2c-1.3,0-2.4,0.4-3.4,1l-12.3-12.2c1.1-1.9,1.9-4,1.9-6.3c0-5.6-4-10.3-9.3-11.3l0,0V49.5
			c1.1-0.3,2-0.9,2.9-1.6l25.1,14.9l21.8,29.4c-0.1,0.4-0.1,0.7-0.1,1.1c0,2,1.7,3.7,3.7,3.7c2,0,3.7-1.7,3.7-3.7
			c0-2-1.7-3.7-3.7-3.7c0,0,0,0-0.1,0L214,61.5c2.4-2.1,7.7-6.9,12.8-11.2C228.1,48.6,229.9,47,231.7,45.6z M146.3,24.1
			c0.4,0.1,0.9,0.1,1.4,0.1c1.3,0,2.6-0.4,3.6-1.1l20.8,16.8c-0.3,0.9-0.6,1.7-0.6,2.7c0,3.3,2.3,6.2,5.3,7v32.1V82
			c-1.3,0.3-2.4,0.7-3.6,1.3l-32.8-29.7l-0.6-0.1l0,0c0-3-1.4-5.7-3.7-7.3L146.3,24.1z M138.5,102.8c-1.3-3-4.3-5-7.7-5
			c-2.1,0-4.2,0.9-5.7,2.3l-13.2-10h-0.1c0.7-1.6,1.1-3.4,1.1-5.3c0-2.9-0.9-5.4-2.4-7.7l15.5-15.6c1.4,0.9,3,1.3,4.7,1.3
			c3.4,0,6.3-1.9,7.9-4.6l31.2,28.2c-1.6,2-2.4,4.4-2.4,7c0,0.6,0,1,0.1,1.6L138.5,102.8z"/>
	</g>
	<g>
		<polygon class="st1" points="43.6,150.8 43.6,150.8 43.6,150.8 		"/>
		<polygon class="st1" points="21.4,150.8 21.4,150.8 21.4,150.8 		"/>
		<path class="st1" d="M36.2,147.6L36.2,147.6L36.2,147.6l-7.4,0l0,0c-2.9,0-5.6,1.2-7.4,3.2c-1.9,2-3,4.6-3,7.6v33.9l5.9-2v-18.6
			h16.6v20.5l5.9-2v-32v0c0-2.9-1.1-5.6-3-7.6C41.8,148.9,39.1,147.6,36.2,147.6z M25.6,154.9c0.9-0.9,1.9-1.4,3.2-1.4h7.4
			c1.2,0,2.3,0.5,3.2,1.4c0.8,0.9,1.4,2.1,1.4,3.5v7.5H24.2v-7.5C24.2,157,24.8,155.8,25.6,154.9z"/>
		<path class="st1" d="M156.6,150.8C156.6,150.8,156.6,150.8,156.6,150.8C156.6,150.8,156.6,150.8,156.6,150.8L156.6,150.8
			c-1.9-2-4.5-3.2-7.4-3.2h0l0,0h-7.4l0,0c-2.9,0-5.6,1.2-7.4,3.2c-1.9,2-3,4.6-3,7.6v0l0,0v33.9l5.9-2v-32c0-1.4,0.5-2.6,1.4-3.5
			c0.9-0.9,1.9-1.4,3.2-1.4h7.4c1.2,0,2.3,0.5,3.2,1.4c0.8,0.9,1.4,2.1,1.4,3.5v33.9l5.9-2v-32C159.6,155.5,158.5,152.8,156.6,150.8
			L156.6,150.8z"/>
		<polygon class="st1" points="213.3,150.8 213.3,150.8 213.3,150.8 		"/>
		<path class="st1" d="M228.1,147.6L228.1,147.6L228.1,147.6l-7.4,0l0,0c-2.9,0-5.6,1.2-7.4,3.2c0,0,0,0,0,0c0,0,0,0,0,0
			c-1.9-2-4.5-3.2-7.4-3.2h0l0,0h-7.4l0,0c-2.9,0-5.6,1.2-7.4,3.2c-1.9,1.9-3,4.6-3,7.6v0l0,0v33.9l5.9-2v-32c0-1.4,0.5-2.6,1.4-3.5
			c0.9-0.9,2-1.4,3.2-1.4h7.4c1.2,0,2.3,0.5,3.2,1.4c0.8,0.9,1.4,2.1,1.4,3.5v33.9l5.9-2v-32c0-0.2,0-0.4,0-0.5
			c0.1-1.2,0.6-2.2,1.3-3c0.9-0.9,2-1.4,3.2-1.4h7.4c1.2,0,2.3,0.5,3.2,1.4c0.8,0.9,1.4,2.1,1.4,3.5v33.9l5.9-2v-32
			c0-2.9-1.1-5.6-3-7.6C233.7,148.9,231.1,147.6,228.1,147.6z"/>
		<path class="st1" d="M118.5,166.6c0,1.4-0.5,2.6-1.4,3.5c-0.9,0.9-1.9,1.4-3.2,1.4h-7.4c-1.2,0-2.3-0.5-3.2-1.4
			c-0.8-0.9-1.4-2.1-1.4-3.5v-19.3l-5.9,2v17.3l0,0c0,2.9,1.1,5.6,3,7.6c1.9,1.9,4.5,3.2,7.4,3.2v0l0,0h0.8l0,15l5.9-2v-13l0.8,0
			l0,0c2.9,0,5.6-1.2,7.4-3.2c1.9-2,3-4.6,3-7.6v-19.3l-5.9,2V166.6z"/>
		<polygon class="st1" points="57.9,192.3 58.9,192 63.8,190.4 63.8,147.3 57.9,149.3 		"/>
		<polygon class="st1" points="80.2,147.3 79.2,147.7 74.4,149.3 74.4,192 76,192 79.5,192 98.1,192 99.1,186.2 80.2,186.2 		"/>
		<path class="st1" d="M174.2,186.1c-1.6,0-3,1.3-3,3c0,1.6,1.3,3,3,3c1.6,0,3-1.3,3-3C177.1,187.4,175.8,186.1,174.2,186.1z"/>
		<path class="st1" d="M277.2,181.5c0-2.8,0-5.3,0-7.1c0-1.8,0-2.9,0-2.9v-0.1v0l0-0.2l0,0l0,0c0,0,0-0.2-0.1-0.4
			c-0.1-0.6-0.4-1.9-1.3-3.2l0,0c-0.6-0.9-1.4-1.9-2.6-2.6c-1.2-0.7-2.7-1.2-4.4-1.2l0,0v0c-2.4,0-5.3,0-7.5,0c-1.7,0-3,0-3.5,0
			c-0.3-0.1-0.8-0.2-1.2-0.5l0,0l0,0c-0.3-0.1-0.4-0.3-0.5-0.4l-0.1-0.1l0-0.2c0-2.8,0-7.2,0-8.5c0.1-0.2,0.2-0.4,0.3-0.5l0,0
			c0.1-0.2,0.2-0.3,0.4-0.4c0.2-0.1,0.5-0.2,1-0.2c3.3,0,8.5,0,10.2,0c0.1,0.1,0.3,0.2,0.4,0.3l0,0c0.1,0.1,0.3,0.3,0.3,0.3
			c0.1,0.1,0.1,0.1,0.1,0.3c0,2.7,0,5.1,0,5.1v1.1l5.9-2v-0.6c0,0,0-1,0-3.7v0c0-1.2-0.4-2.3-0.9-3.2c-0.8-1.3-1.8-2.1-2.6-2.6l0,0
			c-0.8-0.5-1.4-0.7-1.5-0.8l0,0l-0.4-0.1l-0.1,0h-0.5c0,0-6.8,0-10.9,0l0,0l0,0c-1.5,0-2.8,0.3-3.8,0.9c-1.6,0.9-2.6,2.2-3.1,3.2
			c-0.5,1-0.6,1.8-0.7,2l0,0l0,0.2l0,0.1v0.2c0,0,0,5.6,0,8.9l0,0c0,1.5,0.5,2.8,1.3,3.8c1.1,1.4,2.5,2.1,3.6,2.6l0,0
			c1,0.4,1.9,0.6,2,0.6l0,0l0.2,0l0.1,0h0.2c0,0,1.6,0,3.9,0c2.2,0,5.1,0,7.5,0c0.7,0,1.1,0.1,1.4,0.3c0.4,0.2,0.7,0.7,0.9,1.2
			c0.1,0.2,0.2,0.5,0.2,0.6l0,0c0,0.4,0,1.3,0,2.6c0,1.8,0,4.3,0,7.1c0,0.9-0.2,1.4-0.3,1.7c-0.1,0.2-0.2,0.3-0.3,0.4
			c-0.1,0.1-0.1,0.1-0.3,0.2l-0.3,0.1l-0.1,0l0,0l0,0l0,0l0,0h-0.1c0,0-5.8,0-13.8,0h0h0l0,0c0,0-0.3,0-0.6-0.1
			c-0.3,0-0.6-0.1-0.9-0.2l0,0l0,0c-0.2-0.1-0.4-0.2-0.4-0.2l0-0.1c0,0,0-0.1,0-0.3c0-3.6,0-9,0-9V173l-5.9,2v0.6c0,0,0,3.9,0,7.6
			l0,0.1c0,1.6,0.6,3,1.5,4l0,0c0,0,0,0,0,0c0,0,0,0,0,0l0,0c0.7,0.8,1.4,1.3,2.1,1.6l0,0c1.1,0.5,2.1,0.8,2.8,0.9l0,0
			c0.7,0.1,1.3,0.1,1.4,0.1c8,0,13.7,0,13.8,0l0.1,0l0,0h0c0.3,0,0.9,0,1.6-0.2c1.1-0.2,2.5-0.9,3.7-2.2
			C276.5,186,277.2,184,277.2,181.5L277.2,181.5z"/>
		<polygon class="st1" points="275.3,187.3 275.3,187.3 275.3,187.3 		"/>
		<polygon class="st1" points="273.2,165 273.2,165 273.2,165 		"/>
	</g>
</g>
</svg>
